<?xml version="1.0" standalone="no"?>
<!DOCTYPE svg PUBLIC "-//W3C//DTD SVG 20010904//EN"
 "http://www.w3.org/TR/2001/REC-SVG-20010904/DTD/svg10.dtd">
<svg version="1.0" xmlns="http://www.w3.org/2000/svg"
 width="900.000000pt" height="555.000000pt" viewBox="0 0 900.000000 555.000000"
 preserveAspectRatio="xMidYMid meet">

<g transform="translate(0.000000,555.000000) scale(0.100000,-0.100000)"
fill="#000000" stroke="none">
<path d="M3115 4970 c-150 -14 -242 -129 -233 -293 4 -80 29 -140 81 -194 l31
-33 -238 0 c-257 0 -273 -3 -315 -56 -26 -33 -28 -109 -5 -143 24 -33 74 -51
147 -51 l65 0 20 -47 c72 -171 80 -342 21 -499 l-20 -54 -77 0 c-92 0 -136
-19 -164 -71 -23 -44 -23 -86 2 -126 41 -68 38 -67 409 -73 l335 -5 -41 -27
c-47 -31 -107 -101 -123 -143 -60 -157 -73 -553 -25 -764 20 -84 78 -178 138
-222 l40 -29 -164 0 c-136 0 -170 -3 -199 -18 -125 -62 -96 -246 43 -269 38
-6 41 -9 74 -81 121 -260 120 -602 -1 -874 -25 -57 -27 -58 -66 -58 -30 0 -48
-7 -74 -31 -58 -50 -67 -129 -24 -192 43 -61 -76 -57 1690 -55 l1613 3 67 33
c109 54 173 141 204 278 25 111 29 439 10 704 -10 124 -22 245 -27 270 -20 87
-82 173 -169 232 -24 16 -17 17 164 17 171 1 192 3 221 21 90 56 82 194 -15
249 -31 17 -55 21 -128 21 l-90 0 -21 58 c-69 185 -66 365 8 559 l32 81 87 4
c70 3 95 8 119 26 85 61 80 187 -10 242 -31 19 -54 20 -562 20 l-529 0 46 48
c96 98 113 170 112 462 0 308 -27 407 -131 486 -89 68 -133 77 -383 82 l-225
4 197 99 c108 54 199 102 202 107 9 14 -7 29 -84 74 -41 25 -146 88 -234 141
l-158 97 -787 -1 c-432 -1 -817 -5 -856 -9z m115 -265 l0 -225 -40 0 -40 0 0
225 0 225 40 0 40 0 0 -225z m120 0 l0 -225 -35 0 -35 0 0 225 0 225 35 0 35
0 0 -225z m1627 -12 l3 -98 -123 -58 -122 -58 -23 28 c-34 42 -62 127 -62 188
0 66 29 147 70 197 l31 37 112 -69 112 -69 2 -98z m363 -314 c58 -28 113 -76
134 -118 33 -65 41 -136 41 -366 0 -160 -4 -246 -13 -282 -25 -96 -86 -165
-182 -204 -30 -12 -252 -14 -1422 -17 -1382 -3 -1388 -2 -1408 18 -26 26 -27
83 -1 109 19 19 43 20 1303 14 792 -3 1321 -1 1381 5 88 8 101 12 129 38 121
114 137 462 27 613 -59 83 64 76 -1462 74 -1343 -3 -1357 -3 -1377 17 -27 27
-26 84 0 110 20 20 29 20 1408 18 l1387 -3 55 -26z m-289 -165 l184 -7 36 -37
c55 -57 73 -136 67 -292 -6 -134 -22 -195 -69 -251 l-26 -31 -204 -8 c-183 -8
-2299 -1 -2308 7 -1 2 7 33 18 68 45 135 43 316 -4 442 -14 39 -29 78 -32 87
-5 17 25 18 493 21 1262 6 1674 7 1845 1z m1206 -1128 c2 -1 -8 -28 -22 -58
-83 -182 -87 -392 -10 -624 l6 -21 -602 -6 c-792 -9 -1978 -8 -2151 2 -156 9
-163 12 -205 95 -68 133 -71 376 -7 512 38 81 63 98 152 106 75 6 2832 1 2839
-6z m-484 -1233 c139 -5 163 -9 190 -27 72 -49 113 -180 126 -408 11 -186 -1
-365 -28 -439 -26 -70 -72 -115 -131 -128 -25 -6 -107 -11 -182 -11 l-138 0 0
55 0 55 114 0 c89 0 116 3 126 15 10 12 10 18 0 30 -10 12 -37 15 -126 15
l-114 0 0 90 0 90 108 0 c119 0 159 13 133 44 -11 13 -35 16 -128 16 l-114 0
3 93 3 92 115 3 c119 3 142 10 120 37 -10 12 -37 15 -135 15 -89 0 -130 4
-151 15 -38 20 -393 22 -427 3 -17 -10 -238 -14 -972 -18 -942 -5 -950 -5
-950 -25 0 -20 8 -20 935 -25 l935 -5 3 -92 3 -93 -936 0 c-826 0 -936 -2
-941 -15 -4 -8 -1 -22 6 -30 11 -13 131 -15 941 -15 l929 0 0 -90 0 -90 -927
0 c-573 0 -934 -4 -943 -10 -12 -7 -12 -13 -4 -27 11 -17 62 -18 943 -21 l931
-2 0 -62 0 -61 -1062 7 c-585 4 -1064 9 -1066 11 -1 1 11 38 28 80 99 249 104
531 15 788 -20 56 -38 110 -41 119 -6 16 13 18 277 21 642 6 2385 6 2532 0z"/>
<path d="M2902 4018 l3 -23 1114 -3 c839 -1 1117 1 1122 10 24 39 43 38 -1123
38 l-1119 0 3 -22z"/>
<path d="M2902 3788 l3 -23 1114 -3 c839 -1 1117 1 1122 10 24 39 43 38 -1123
38 l-1119 0 3 -22z"/>
<path d="M3464 2955 c-4 -8 -4 -22 0 -30 5 -13 155 -15 1273 -15 697 0 1274 4
1281 9 8 5 12 17 10 27 -3 18 -39 19 -1281 22 -1129 2 -1278 0 -1283 -13z"/>
<path d="M3472 2761 c-8 -5 -12 -17 -10 -27 3 -18 39 -19 1281 -22 1134 -2
1278 0 1283 13 4 8 1 22 -6 30 -11 13 -169 15 -1274 15 -693 0 -1267 -4 -1274
-9z"/>
<path d="M3462 2538 l3 -23 1280 0 c1273 0 1280 0 1280 20 0 20 -8 20 -1283
23 l-1283 2 3 -22z"/>
<path d="M3225 1726 c-11 -8 -16 -19 -12 -30 6 -15 110 -16 1315 -16 1191 0
1311 1 1323 16 11 14 10 18 -6 30 -28 21 -2592 21 -2620 0z"/>
</g>
</svg>
